<svg xmlns="http://www.w3.org/2000/svg" xmlns:xlink="http://www.w3.org/1999/xlink" width="290" zoomAndPan="magnify" viewBox="0 0 217.5 231" height="308" preserveAspectRatio="xMidYMid meet" version="1.0"><defs><clipPath id="0e99c15a94"><path d="M 54 62 L 139 62 L 139 173 L 54 173 Z M 54 62 " clip-rule="nonzero"/></clipPath><clipPath id="f289eb6822"><path d="M 33.886719 76.449219 L 116.328125 48.597656 L 151.925781 153.964844 L 69.484375 181.816406 Z M 33.886719 76.449219 " clip-rule="nonzero"/></clipPath><clipPath id="8fcb887dc9"><path d="M 123.363281 141.773438 C 117.636719 143.722656 111.414062 143.371094 105.375 143 C 107.742188 146.980469 110.449219 150.785156 113.46875 154.300781 C 114.675781 155.707031 121.667969 164.089844 123.605469 163.433594 C 119.207031 164.921875 114.894531 166.378906 110.570312 167.839844 C 106.25 169.296875 101.9375 170.753906 97.539062 172.242188 C 99.476562 171.585938 99.953125 160.679688 100.058594 158.828125 C 100.328125 154.203125 100.175781 149.539062 99.640625 144.9375 C 95.066406 148.894531 90.332031 152.945312 84.59375 154.871094 C 71.492188 159.265625 57.082031 150.574219 54.648438 137.171875 C 52.273438 124.089844 58.136719 111.230469 62.964844 99.4375 C 67.761719 87.726562 72.046875 75.785156 74.78125 63.414062 C 74.84375 63.128906 74.917969 62.847656 75.003906 62.558594 C 75.246094 62.738281 75.480469 62.914062 75.703125 63.101562 C 85.378906 71.285156 96.03125 78.179688 106.941406 84.582031 C 117.933594 91.03125 130.390625 97.695312 136.441406 109.542969 C 142.632812 121.671875 136.445312 137.324219 123.363281 141.773438 Z M 123.363281 141.773438 " clip-rule="nonzero"/></clipPath></defs><path fill="#000000" d="M 171.34375 25.363281 L 206.734375 36.335938 C 213.308594 38.375 216.992188 45.363281 214.953125 51.929688 L 181.304688 160.265625 L 186.878906 178.117188 C 188.929688 184.683594 185.257812 191.675781 178.6875 193.726562 L 177.171875 194.199219 L 177.171875 196.921875 C 177.171875 203.335938 172.3125 208.621094 166.074219 209.304688 L 168.160156 202.585938 C 170.070312 201.417969 171.34375 199.316406 171.34375 196.921875 L 171.34375 196.015625 L 147.128906 203.5625 L 164.695312 203.5625 C 165.964844 203.5625 167.152344 203.203125 168.160156 202.585938 L 163.953125 216.136719 C 161.914062 222.707031 154.917969 226.382812 148.34375 224.347656 L 114.304688 213.792969 L 68.941406 227.933594 C 62.371094 229.980469 55.367188 226.3125 53.320312 219.75 L 44.722656 192.222656 L 48.109375 193.273438 L 44.722656 192.222656 L 43.085938 186.988281 L 44.722656 192.222656 L 38.542969 190.308594 L 43.085938 191.714844 L 43.085938 196.921875 C 43.085938 200.0625 45.273438 202.695312 48.207031 203.382812 L 50.082031 209.382812 L 49.734375 209.382812 C 42.847656 209.382812 37.257812 203.800781 37.257812 196.921875 L 37.257812 189.832031 C 31.5 187.332031 28.425781 180.839844 30.328125 174.714844 L 34.777344 160.382812 L 2.0625 55.625 C 0.0117188 49.058594 3.683594 42.0625 10.257812 40.015625 L 41.511719 30.273438 L 37.257812 31.597656 L 37.257812 24.992188 C 37.257812 18.117188 42.847656 12.53125 49.734375 12.53125 L 80.699219 12.53125 L 78.890625 18.355469 L 49.734375 18.355469 C 46.066406 18.355469 43.085938 21.328125 43.085938 24.992188 L 43.085938 29.78125 L 78.796875 18.652344 L 76.699219 25.402344 L 11.992188 45.574219 C 8.492188 46.664062 6.535156 50.390625 7.628906 53.890625 L 58.882812 218.015625 C 59.972656 221.511719 63.703125 223.464844 67.207031 222.375 L 176.953125 188.167969 L 177.171875 188.09375 L 177.210938 188.078125 C 180.546875 186.890625 182.382812 183.261719 181.316406 179.851562 L 130.0625 15.726562 C 129.652344 14.417969 128.878906 13.328125 127.882812 12.53125 L 127.863281 12.515625 C 126.199219 11.1875 123.925781 10.683594 121.738281 11.363281 L 76.699219 25.402344 L 81.324219 10.507812 C 83.367188 3.9375 90.359375 0.261719 96.9375 2.300781 L 134.402344 13.914062 L 114.144531 7.632812 L 120.003906 5.808594 C 126.070312 3.914062 132.5 6.894531 135.0625 12.53125 L 135.21875 12.878906 C 135.175781 12.777344 135.128906 12.675781 135.082031 12.574219 C 135.082031 12.574219 135.0625 12.53125 135.0625 12.53125 L 164.695312 12.53125 C 171.582031 12.53125 177.171875 18.117188 177.171875 24.992188 L 177.171875 27.171875 L 171.34375 25.363281 L 171.34375 24.992188 C 171.34375 21.328125 168.363281 18.355469 164.695312 18.355469 L 136.988281 18.355469 L 137.835938 21.074219 L 135.683594 20.40625 L 137.835938 21.074219 L 171.34375 128.363281 Z M 159.949219 209.382812 L 128.449219 209.382812 L 124.109375 210.738281 L 150.070312 218.785156 C 153.574219 219.871094 157.300781 217.910156 158.386719 214.410156 Z M 164.699219 209.382812 Z M 164.707031 209.382812 C 164.707031 209.382812 164.703125 209.382812 164.703125 209.382812 Z M 164.714844 209.382812 Z M 164.71875 209.382812 C 164.71875 209.382812 164.71875 209.382812 164.714844 209.382812 Z M 164.722656 209.382812 L 164.71875 209.382812 Z M 164.722656 209.382812 Z M 164.726562 209.382812 Z M 164.730469 209.382812 Z M 164.75 209.382812 Z M 164.753906 209.382812 Z M 164.765625 209.382812 Z M 164.777344 209.382812 Z M 164.78125 209.382812 Z M 164.8125 209.382812 L 164.808594 209.382812 Z M 164.867188 209.382812 Z M 164.882812 209.382812 Z M 164.914062 209.382812 C 164.910156 209.382812 164.910156 209.382812 164.910156 209.382812 C 164.910156 209.382812 164.910156 209.382812 164.914062 209.382812 Z M 164.914062 209.382812 Z M 164.925781 209.382812 Z M 164.929688 209.382812 C 164.929688 209.382812 164.933594 209.382812 164.933594 209.382812 Z M 164.945312 209.382812 Z M 164.949219 209.382812 L 164.945312 209.382812 Z M 164.949219 209.382812 Z M 164.957031 209.382812 L 164.953125 209.382812 Z M 164.957031 209.382812 Z M 164.960938 209.382812 Z M 164.960938 209.382812 Z M 164.96875 209.382812 C 164.96875 209.382812 164.964844 209.382812 164.964844 209.382812 C 164.964844 209.382812 164.96875 209.382812 164.96875 209.382812 Z M 164.984375 209.378906 Z M 165.003906 209.378906 Z M 165.007812 209.378906 Z M 165.015625 209.378906 Z M 165.015625 209.378906 Z M 165.023438 209.378906 C 165.023438 209.378906 165.019531 209.378906 165.019531 209.378906 C 165.019531 209.378906 165.023438 209.378906 165.023438 209.378906 Z M 165.03125 209.378906 Z M 165.035156 209.378906 Z M 165.042969 209.378906 C 165.042969 209.378906 165.042969 209.378906 165.039062 209.378906 Z M 165.046875 209.378906 Z M 165.050781 209.378906 Z M 165.050781 209.378906 Z M 165.054688 209.378906 L 165.050781 209.378906 Z M 165.0625 209.378906 Z M 165.066406 209.378906 Z M 165.070312 209.378906 Z M 165.078125 209.378906 Z M 165.101562 209.378906 Z M 165.105469 209.378906 Z M 165.109375 209.378906 Z M 165.113281 209.378906 Z M 165.117188 209.378906 L 165.113281 209.378906 Z M 165.117188 209.375 C 165.117188 209.375 165.117188 209.375 165.117188 209.378906 Z M 165.132812 209.375 Z M 165.136719 209.375 Z M 165.144531 209.375 C 165.144531 209.375 165.140625 209.375 165.140625 209.375 Z M 165.152344 209.375 Z M 165.152344 209.375 Z M 165.15625 209.375 Z M 165.175781 209.375 Z M 165.179688 209.375 L 165.175781 209.375 Z M 165.179688 209.375 Z M 165.1875 209.375 Z M 165.195312 209.375 C 165.191406 209.375 165.191406 209.375 165.191406 209.375 C 165.191406 209.375 165.191406 209.375 165.195312 209.375 Z M 165.199219 209.375 C 165.199219 209.375 165.195312 209.375 165.195312 209.375 C 165.195312 209.375 165.199219 209.375 165.199219 209.375 Z M 165.203125 209.375 Z M 165.210938 209.375 Z M 165.210938 209.375 Z M 165.214844 209.375 Z M 165.21875 209.375 Z M 165.222656 209.371094 C 165.222656 209.371094 165.222656 209.371094 165.222656 209.375 C 165.222656 209.371094 165.222656 209.371094 165.222656 209.371094 Z M 165.226562 209.371094 C 165.226562 209.371094 165.222656 209.371094 165.222656 209.371094 C 165.222656 209.371094 165.226562 209.371094 165.226562 209.371094 Z M 165.226562 209.371094 Z M 165.230469 209.371094 Z M 165.234375 209.371094 C 165.234375 209.371094 165.234375 209.371094 165.230469 209.371094 C 165.234375 209.371094 165.234375 209.371094 165.234375 209.371094 Z M 165.234375 209.371094 Z M 165.238281 209.371094 C 165.234375 209.371094 165.234375 209.371094 165.234375 209.371094 C 165.234375 209.371094 165.234375 209.371094 165.238281 209.371094 Z M 165.238281 209.371094 Z M 165.242188 209.371094 Z M 165.25 209.371094 Z M 165.257812 209.371094 Z M 165.261719 209.371094 Z M 165.273438 209.371094 C 165.269531 209.371094 165.269531 209.371094 165.269531 209.371094 Z M 165.285156 209.371094 Z M 165.289062 209.371094 Z M 165.292969 209.371094 Z M 165.300781 209.371094 L 165.296875 209.371094 Z M 165.316406 209.367188 C 165.316406 209.367188 165.316406 209.367188 165.3125 209.367188 C 165.316406 209.367188 165.316406 209.367188 165.316406 209.367188 Z M 165.324219 209.367188 Z M 165.324219 209.367188 Z M 165.347656 209.367188 Z M 165.363281 209.367188 Z M 165.367188 209.367188 Z M 165.382812 209.367188 L 165.378906 209.367188 Z M 165.382812 209.363281 Z M 165.390625 209.363281 L 165.386719 209.363281 Z M 165.390625 209.363281 Z M 165.394531 209.363281 Z M 165.394531 209.363281 Z M 165.402344 209.363281 C 165.402344 209.363281 165.398438 209.363281 165.398438 209.363281 C 165.398438 209.363281 165.402344 209.363281 165.402344 209.363281 Z M 165.40625 209.363281 Z M 165.410156 209.363281 Z M 165.410156 209.363281 Z M 165.414062 209.363281 Z M 165.417969 209.363281 C 165.417969 209.363281 165.417969 209.363281 165.414062 209.363281 C 165.417969 209.363281 165.417969 209.363281 165.417969 209.363281 Z M 165.417969 209.363281 Z M 165.421875 209.363281 Z M 165.425781 209.363281 C 165.421875 209.363281 165.421875 209.363281 165.421875 209.363281 C 165.421875 209.363281 165.421875 209.363281 165.425781 209.363281 Z M 165.433594 209.363281 C 165.429688 209.363281 165.429688 209.363281 165.425781 209.363281 C 165.429688 209.363281 165.429688 209.363281 165.433594 209.363281 Z M 165.441406 209.363281 C 165.4375 209.363281 165.4375 209.363281 165.433594 209.363281 C 165.4375 209.363281 165.4375 209.363281 165.441406 209.363281 Z M 165.441406 209.363281 Z M 165.445312 209.363281 L 165.441406 209.363281 Z M 165.445312 209.363281 Z M 165.449219 209.363281 Z M 165.453125 209.359375 Z M 165.46875 209.359375 Z M 165.476562 209.359375 L 165.472656 209.359375 Z M 165.480469 209.359375 L 165.492188 209.359375 Z M 165.496094 209.359375 C 165.496094 209.359375 165.492188 209.359375 165.492188 209.359375 Z M 165.496094 209.359375 Z M 165.5 209.359375 Z M 165.507812 209.359375 L 165.503906 209.359375 Z M 165.511719 209.359375 C 165.511719 209.359375 165.511719 209.359375 165.507812 209.359375 Z M 165.515625 209.355469 C 165.515625 209.355469 165.511719 209.355469 165.511719 209.355469 C 165.511719 209.355469 165.515625 209.355469 165.515625 209.355469 Z M 165.519531 209.355469 Z M 165.523438 209.355469 Z M 165.53125 209.355469 C 165.53125 209.355469 165.527344 209.355469 165.527344 209.355469 C 165.527344 209.355469 165.53125 209.355469 165.53125 209.355469 Z M 165.742188 209.339844 L 165.738281 209.339844 Z M 165.746094 209.339844 Z M 165.75 209.339844 Z M 165.75 209.339844 Z M 165.753906 209.339844 Z M 165.765625 209.339844 Z M 165.789062 209.335938 Z M 165.792969 209.335938 Z M 165.800781 209.335938 Z M 165.804688 209.335938 Z M 165.824219 209.332031 Z M 165.847656 209.332031 L 165.84375 209.332031 Z M 165.847656 209.332031 L 165.851562 209.332031 C 165.851562 209.332031 165.851562 209.332031 165.847656 209.332031 Z M 165.855469 209.328125 Z M 165.859375 209.328125 Z M 165.863281 209.328125 Z M 165.867188 209.328125 C 165.867188 209.328125 165.863281 209.328125 165.863281 209.328125 C 165.863281 209.328125 165.867188 209.328125 165.867188 209.328125 Z M 165.882812 209.328125 Z M 165.890625 209.328125 C 165.890625 209.328125 165.890625 209.328125 165.886719 209.328125 C 165.890625 209.328125 165.890625 209.328125 165.890625 209.328125 Z M 165.894531 209.324219 Z M 165.921875 209.324219 C 165.917969 209.324219 165.917969 209.324219 165.914062 209.324219 C 165.917969 209.324219 165.917969 209.324219 165.921875 209.324219 Z M 165.925781 209.324219 C 165.925781 209.324219 165.925781 209.324219 165.921875 209.324219 C 165.925781 209.324219 165.925781 209.324219 165.925781 209.324219 Z M 165.929688 209.324219 Z M 165.933594 209.320312 Z M 165.933594 209.320312 Z M 165.9375 209.320312 Z M 165.941406 209.320312 Z M 165.945312 209.320312 C 165.945312 209.320312 165.945312 209.320312 165.941406 209.320312 C 165.945312 209.320312 165.945312 209.320312 165.945312 209.320312 Z M 165.949219 209.320312 Z M 165.953125 209.320312 Z M 165.953125 209.320312 Z M 165.960938 209.320312 C 165.960938 209.320312 165.957031 209.320312 165.957031 209.320312 Z M 165.960938 209.320312 Z M 165.976562 209.316406 Z M 165.980469 209.316406 Z M 165.980469 209.316406 Z M 165.984375 209.316406 Z M 165.988281 209.316406 Z M 166.003906 209.316406 C 166.003906 209.316406 166 209.316406 166 209.316406 Z M 166.007812 209.3125 Z M 166.007812 209.3125 Z M 166.015625 209.3125 C 166.015625 209.3125 166.011719 209.3125 166.007812 209.3125 C 166.011719 209.3125 166.015625 209.3125 166.015625 209.3125 Z M 166.019531 209.3125 Z M 166.023438 209.3125 L 166.019531 209.3125 Z M 166.027344 209.3125 Z M 166.03125 209.3125 Z M 166.035156 209.3125 L 166.03125 209.3125 Z M 166.035156 209.3125 Z M 166.046875 209.308594 L 166.042969 209.308594 Z M 166.046875 209.308594 Z M 166.050781 209.308594 C 166.050781 209.308594 166.050781 209.308594 166.046875 209.308594 Z M 166.054688 209.308594 Z M 166.058594 209.308594 Z M 166.0625 209.308594 Z M 166.074219 209.308594 C 166.070312 209.308594 166.070312 209.308594 166.066406 209.308594 Z M 38.542969 190.308594 Z M 38.535156 190.304688 Z M 38.53125 190.304688 Z M 38.523438 190.300781 L 38.53125 190.304688 C 38.527344 190.304688 38.523438 190.304688 38.523438 190.300781 Z M 38.515625 190.300781 C 38.519531 190.300781 38.519531 190.300781 38.519531 190.300781 C 38.519531 190.300781 38.519531 190.300781 38.515625 190.300781 Z M 38.515625 190.300781 Z M 38.507812 190.296875 C 38.507812 190.296875 38.511719 190.296875 38.511719 190.296875 C 38.511719 190.296875 38.507812 190.296875 38.507812 190.296875 Z M 38.503906 190.296875 C 38.503906 190.296875 38.503906 190.296875 38.507812 190.296875 C 38.503906 190.296875 38.503906 190.296875 38.503906 190.296875 Z M 38.492188 190.292969 C 38.496094 190.292969 38.5 190.296875 38.503906 190.296875 C 38.5 190.296875 38.496094 190.292969 38.492188 190.292969 Z M 38.480469 190.289062 C 38.484375 190.289062 38.488281 190.292969 38.492188 190.292969 C 38.488281 190.292969 38.484375 190.289062 38.480469 190.289062 Z M 38.476562 190.289062 Z M 38.472656 190.289062 C 38.476562 190.289062 38.476562 190.289062 38.476562 190.289062 C 38.476562 190.289062 38.476562 190.289062 38.472656 190.289062 Z M 38.472656 190.285156 Z M 38.460938 190.28125 C 38.464844 190.285156 38.46875 190.285156 38.472656 190.285156 C 38.46875 190.285156 38.464844 190.285156 38.460938 190.28125 Z M 38.453125 190.28125 C 38.453125 190.28125 38.457031 190.28125 38.457031 190.28125 C 38.457031 190.28125 38.453125 190.28125 38.453125 190.28125 Z M 38.449219 190.28125 Z M 38.429688 190.273438 C 38.4375 190.273438 38.441406 190.277344 38.449219 190.277344 C 38.441406 190.277344 38.4375 190.273438 38.429688 190.273438 Z M 38.429688 190.273438 Z M 38.398438 190.261719 C 38.40625 190.265625 38.417969 190.269531 38.425781 190.273438 C 38.417969 190.269531 38.40625 190.265625 38.398438 190.261719 Z M 38.390625 190.261719 C 38.390625 190.261719 38.394531 190.261719 38.398438 190.261719 C 38.394531 190.261719 38.390625 190.261719 38.390625 190.261719 Z M 38.386719 190.257812 Z M 38.378906 190.257812 C 38.378906 190.257812 38.382812 190.257812 38.382812 190.257812 C 38.382812 190.257812 38.378906 190.257812 38.378906 190.257812 Z M 38.375 190.253906 C 38.375 190.253906 38.375 190.253906 38.378906 190.257812 C 38.375 190.253906 38.375 190.253906 38.375 190.253906 Z M 38.371094 190.253906 Z M 38.367188 190.253906 C 38.367188 190.253906 38.367188 190.253906 38.371094 190.253906 C 38.367188 190.253906 38.367188 190.253906 38.367188 190.253906 Z M 38.363281 190.25 Z M 38.359375 190.25 Z M 38.355469 190.25 L 38.359375 190.25 Z M 38.355469 190.25 Z M 38.34375 190.246094 Z M 38.339844 190.246094 L 38.34375 190.246094 Z M 38.339844 190.242188 C 38.339844 190.242188 38.339844 190.242188 38.339844 190.246094 C 38.339844 190.242188 38.339844 190.242188 38.339844 190.242188 Z M 38.335938 190.242188 Z M 38.332031 190.242188 C 38.332031 190.242188 38.332031 190.242188 38.335938 190.242188 C 38.332031 190.242188 38.332031 190.242188 38.332031 190.242188 Z M 38.324219 190.238281 C 38.324219 190.238281 38.328125 190.238281 38.328125 190.238281 C 38.328125 190.238281 38.324219 190.238281 38.324219 190.238281 Z M 38.324219 190.238281 Z M 38.320312 190.238281 Z M 38.300781 190.230469 L 38.304688 190.230469 C 38.304688 190.230469 38.300781 190.230469 38.300781 190.230469 Z M 38.296875 190.230469 C 38.296875 190.230469 38.300781 190.230469 38.300781 190.230469 C 38.300781 190.230469 38.296875 190.230469 38.296875 190.230469 Z M 38.285156 190.226562 C 38.285156 190.226562 38.289062 190.226562 38.292969 190.226562 C 38.289062 190.226562 38.285156 190.226562 38.285156 190.226562 Z M 38.28125 190.222656 Z M 38.277344 190.222656 L 38.28125 190.222656 Z M 38.277344 190.222656 Z M 38.273438 190.222656 Z M 38.273438 190.222656 Z M 38.269531 190.222656 Z M 38.261719 190.21875 C 38.261719 190.21875 38.265625 190.21875 38.269531 190.21875 C 38.265625 190.21875 38.261719 190.21875 38.261719 190.21875 Z M 38.257812 190.214844 C 38.257812 190.214844 38.257812 190.214844 38.257812 190.21875 C 38.257812 190.214844 38.257812 190.214844 38.257812 190.214844 Z M 38.253906 190.214844 Z M 38.238281 190.210938 C 38.242188 190.210938 38.242188 190.210938 38.242188 190.210938 C 38.242188 190.210938 38.242188 190.210938 38.238281 190.210938 Z M 38.238281 190.210938 Z M 38.234375 190.207031 L 38.234375 190.210938 Z M 38.230469 190.207031 Z M 38.226562 190.207031 Z M 38.210938 190.199219 C 38.214844 190.203125 38.21875 190.203125 38.222656 190.203125 C 38.21875 190.203125 38.214844 190.203125 38.210938 190.199219 Z M 38.199219 190.195312 C 38.203125 190.199219 38.203125 190.199219 38.207031 190.199219 C 38.203125 190.199219 38.203125 190.199219 38.199219 190.195312 Z M 38.195312 190.195312 C 38.199219 190.195312 38.199219 190.195312 38.199219 190.195312 C 38.199219 190.195312 38.199219 190.195312 38.195312 190.195312 Z M 38.195312 190.195312 Z M 38.191406 190.195312 L 38.195312 190.195312 C 38.195312 190.195312 38.191406 190.195312 38.191406 190.195312 Z M 38.183594 190.191406 C 38.183594 190.191406 38.1875 190.191406 38.191406 190.195312 C 38.1875 190.191406 38.183594 190.191406 38.183594 190.191406 Z M 38.179688 190.191406 Z M 38.179688 190.191406 Z M 38.175781 190.1875 Z M 38.175781 190.1875 Z M 38.171875 190.1875 Z M 38.167969 190.1875 Z M 38.164062 190.183594 C 38.164062 190.183594 38.167969 190.183594 38.167969 190.183594 C 38.167969 190.183594 38.164062 190.183594 38.164062 190.183594 Z M 38.164062 190.183594 Z M 38.160156 190.183594 C 38.160156 190.183594 38.160156 190.183594 38.164062 190.183594 C 38.160156 190.183594 38.160156 190.183594 38.160156 190.183594 Z M 38.15625 190.183594 Z M 38.136719 190.175781 Z M 38.128906 190.171875 L 38.132812 190.171875 C 38.128906 190.171875 38.128906 190.171875 38.128906 190.171875 Z M 38.121094 190.171875 L 38.125 190.171875 C 38.125 190.171875 38.125 190.171875 38.121094 190.171875 Z M 38.117188 190.167969 C 38.117188 190.167969 38.121094 190.167969 38.121094 190.167969 C 38.121094 190.167969 38.117188 190.167969 38.117188 190.167969 Z M 38.113281 190.167969 L 38.117188 190.167969 C 38.117188 190.167969 38.113281 190.167969 38.113281 190.167969 Z M 38.113281 190.167969 Z M 38.09375 190.160156 C 38.101562 190.164062 38.105469 190.164062 38.109375 190.167969 C 38.105469 190.164062 38.101562 190.164062 38.09375 190.160156 Z M 38.09375 190.160156 Z M 38.085938 190.15625 C 38.085938 190.15625 38.089844 190.160156 38.089844 190.160156 C 38.089844 190.160156 38.085938 190.15625 38.085938 190.15625 Z M 38.082031 190.15625 Z M 38.082031 190.15625 Z M 38.078125 190.15625 Z M 38.074219 190.152344 C 38.074219 190.152344 38.074219 190.152344 38.078125 190.152344 C 38.074219 190.152344 38.074219 190.152344 38.074219 190.152344 Z M 38.070312 190.152344 C 38.070312 190.152344 38.074219 190.152344 38.074219 190.152344 C 38.074219 190.152344 38.070312 190.152344 38.070312 190.152344 Z M 38.0625 190.148438 C 38.066406 190.148438 38.066406 190.152344 38.070312 190.152344 C 38.066406 190.152344 38.066406 190.148438 38.0625 190.148438 Z M 38.058594 190.148438 C 38.058594 190.148438 38.0625 190.148438 38.0625 190.148438 C 38.0625 190.148438 38.058594 190.148438 38.058594 190.148438 Z M 38.050781 190.144531 C 38.050781 190.144531 38.054688 190.144531 38.058594 190.148438 C 38.054688 190.144531 38.050781 190.144531 38.050781 190.144531 Z M 38.046875 190.144531 Z M 38.035156 190.140625 Z M 38.03125 190.136719 Z M 38.027344 190.136719 C 38.027344 190.136719 38.027344 190.136719 38.03125 190.136719 C 38.027344 190.136719 38.027344 190.136719 38.027344 190.136719 Z M 38.015625 190.132812 C 38.015625 190.132812 38.019531 190.132812 38.023438 190.136719 C 38.019531 190.132812 38.015625 190.132812 38.015625 190.132812 Z M 38.011719 190.128906 C 38.011719 190.132812 38.011719 190.132812 38.011719 190.132812 C 38.011719 190.132812 38.011719 190.132812 38.011719 190.128906 Z M 37.949219 190.109375 C 37.960938 190.113281 37.96875 190.117188 37.980469 190.121094 C 37.988281 190.121094 38 190.125 38.007812 190.128906 L 38.011719 190.128906 C 37.988281 190.125 37.96875 190.117188 37.949219 190.109375 Z M 37.949219 190.109375 Z M 37.875 190.082031 C 37.886719 190.085938 37.898438 190.089844 37.910156 190.09375 C 37.921875 190.097656 37.933594 190.101562 37.945312 190.105469 C 37.933594 190.101562 37.921875 190.097656 37.910156 190.09375 C 37.898438 190.089844 37.886719 190.085938 37.875 190.082031 Z M 37.871094 190.078125 C 37.871094 190.078125 37.875 190.082031 37.875 190.082031 C 37.875 190.082031 37.871094 190.078125 37.871094 190.078125 Z M 37.839844 190.066406 C 37.851562 190.070312 37.859375 190.074219 37.871094 190.078125 C 37.859375 190.074219 37.851562 190.070312 37.839844 190.066406 Z M 37.828125 190.0625 C 37.832031 190.066406 37.835938 190.066406 37.839844 190.066406 C 37.835938 190.066406 37.832031 190.066406 37.828125 190.0625 Z M 37.820312 190.058594 C 37.824219 190.0625 37.824219 190.0625 37.828125 190.0625 C 37.824219 190.0625 37.824219 190.0625 37.820312 190.058594 Z M 37.820312 190.058594 Z M 37.816406 190.058594 Z M 37.816406 190.058594 Z M 37.8125 190.058594 C 37.8125 190.058594 37.8125 190.058594 37.816406 190.058594 C 37.8125 190.058594 37.8125 190.058594 37.8125 190.058594 Z M 37.804688 190.054688 Z M 37.800781 190.050781 C 37.800781 190.054688 37.800781 190.054688 37.804688 190.054688 C 37.800781 190.054688 37.800781 190.054688 37.800781 190.050781 Z M 37.796875 190.050781 Z M 37.785156 190.046875 C 37.789062 190.046875 37.789062 190.046875 37.789062 190.046875 C 37.789062 190.046875 37.789062 190.046875 37.785156 190.046875 Z M 37.78125 190.046875 Z M 37.777344 190.042969 C 37.78125 190.042969 37.78125 190.042969 37.78125 190.046875 C 37.78125 190.042969 37.78125 190.042969 37.777344 190.042969 Z M 37.765625 190.039062 C 37.769531 190.042969 37.773438 190.042969 37.777344 190.042969 C 37.773438 190.042969 37.769531 190.042969 37.765625 190.039062 Z M 37.765625 190.039062 Z M 37.761719 190.039062 Z M 37.75 190.035156 C 37.753906 190.035156 37.753906 190.035156 37.757812 190.035156 C 37.753906 190.035156 37.753906 190.035156 37.75 190.035156 Z M 37.742188 190.03125 C 37.742188 190.03125 37.746094 190.03125 37.746094 190.03125 C 37.746094 190.03125 37.742188 190.03125 37.742188 190.03125 Z M 37.730469 190.023438 C 37.730469 190.027344 37.734375 190.027344 37.738281 190.027344 C 37.734375 190.027344 37.730469 190.027344 37.730469 190.023438 Z M 37.726562 190.023438 Z M 37.722656 190.023438 Z M 37.71875 190.023438 C 37.71875 190.023438 37.722656 190.023438 37.722656 190.023438 C 37.722656 190.023438 37.71875 190.023438 37.71875 190.023438 Z M 37.71875 190.019531 Z M 37.714844 190.019531 Z M 37.699219 190.015625 C 37.703125 190.015625 37.707031 190.015625 37.714844 190.019531 C 37.707031 190.015625 37.703125 190.015625 37.699219 190.015625 Z M 37.691406 190.011719 C 37.695312 190.011719 37.695312 190.011719 37.695312 190.011719 C 37.695312 190.011719 37.695312 190.011719 37.691406 190.011719 Z M 37.691406 190.011719 Z M 37.6875 190.007812 Z M 37.6875 190.007812 Z M 37.667969 190 C 37.671875 190.003906 37.679688 190.003906 37.683594 190.007812 C 37.679688 190.003906 37.671875 190.003906 37.667969 190 Z M 37.664062 190 Z M 37.660156 190 C 37.660156 190 37.664062 190 37.664062 190 C 37.664062 190 37.660156 190 37.660156 190 Z M 37.660156 189.996094 Z M 37.652344 189.996094 C 37.652344 189.996094 37.65625 189.996094 37.65625 189.996094 C 37.65625 189.996094 37.652344 189.996094 37.652344 189.996094 Z M 37.648438 189.996094 L 37.652344 189.996094 Z M 37.648438 189.992188 Z M 37.644531 189.992188 C 37.644531 189.992188 37.648438 189.992188 37.648438 189.992188 C 37.648438 189.992188 37.644531 189.992188 37.644531 189.992188 Z M 37.636719 189.988281 C 37.640625 189.988281 37.640625 189.992188 37.640625 189.992188 C 37.640625 189.992188 37.640625 189.988281 37.636719 189.988281 Z M 37.632812 189.988281 C 37.632812 189.988281 37.636719 189.988281 37.636719 189.988281 C 37.636719 189.988281 37.632812 189.988281 37.632812 189.988281 Z M 37.632812 189.988281 Z M 37.628906 189.984375 L 37.632812 189.988281 Z M 37.613281 189.980469 C 37.617188 189.980469 37.625 189.984375 37.628906 189.984375 C 37.625 189.984375 37.617188 189.980469 37.613281 189.980469 Z M 37.609375 189.976562 L 37.613281 189.980469 C 37.609375 189.980469 37.609375 189.976562 37.609375 189.976562 Z M 37.605469 189.976562 Z M 37.601562 189.976562 L 37.605469 189.976562 Z M 37.550781 189.953125 C 37.558594 189.957031 37.566406 189.960938 37.578125 189.964844 C 37.585938 189.96875 37.59375 189.972656 37.601562 189.976562 C 37.59375 189.972656 37.585938 189.96875 37.578125 189.964844 C 37.566406 189.960938 37.558594 189.957031 37.550781 189.953125 Z M 37.546875 189.953125 C 37.546875 189.953125 37.546875 189.953125 37.550781 189.953125 C 37.546875 189.953125 37.546875 189.953125 37.546875 189.953125 Z M 37.539062 189.949219 C 37.542969 189.949219 37.542969 189.953125 37.542969 189.953125 C 37.542969 189.953125 37.542969 189.949219 37.539062 189.949219 Z M 37.535156 189.949219 C 37.539062 189.949219 37.539062 189.949219 37.539062 189.949219 C 37.539062 189.949219 37.539062 189.949219 37.535156 189.949219 Z M 37.535156 189.949219 Z M 37.53125 189.945312 Z M 37.527344 189.945312 Z M 37.519531 189.941406 L 37.523438 189.941406 Z M 37.519531 189.941406 Z M 37.511719 189.9375 L 37.515625 189.9375 Z M 37.507812 189.9375 Z M 37.5 189.933594 C 37.503906 189.933594 37.503906 189.933594 37.503906 189.9375 C 37.503906 189.933594 37.503906 189.933594 37.5 189.933594 Z M 37.5 189.933594 Z M 37.496094 189.933594 C 37.496094 189.933594 37.496094 189.933594 37.5 189.933594 C 37.496094 189.933594 37.496094 189.933594 37.496094 189.933594 Z M 37.488281 189.929688 Z M 37.480469 189.925781 Z M 37.476562 189.925781 Z M 37.476562 189.921875 Z M 37.464844 189.917969 C 37.46875 189.917969 37.472656 189.921875 37.476562 189.921875 C 37.472656 189.921875 37.46875 189.917969 37.464844 189.917969 Z M 37.457031 189.914062 C 37.457031 189.914062 37.457031 189.914062 37.457031 189.917969 C 37.457031 189.914062 37.457031 189.914062 37.457031 189.914062 Z M 37.453125 189.914062 C 37.453125 189.914062 37.453125 189.914062 37.457031 189.914062 C 37.453125 189.914062 37.453125 189.914062 37.453125 189.914062 Z M 37.445312 189.910156 L 37.449219 189.914062 C 37.449219 189.914062 37.449219 189.910156 37.445312 189.910156 Z M 37.441406 189.910156 C 37.441406 189.910156 37.445312 189.910156 37.445312 189.910156 C 37.445312 189.910156 37.441406 189.910156 37.441406 189.910156 Z M 37.441406 189.910156 Z M 37.4375 189.90625 Z M 37.433594 189.90625 Z M 37.417969 189.898438 Z M 37.414062 189.898438 Z M 37.402344 189.894531 Z M 37.402344 189.890625 Z M 37.394531 189.890625 Z M 37.390625 189.886719 Z M 37.386719 189.886719 C 37.390625 189.886719 37.390625 189.886719 37.390625 189.886719 C 37.390625 189.886719 37.390625 189.886719 37.386719 189.886719 Z M 37.386719 189.886719 Z M 37.375 189.882812 Z M 37.367188 189.878906 Z M 37.363281 189.875 C 37.363281 189.875 37.367188 189.875 37.367188 189.878906 C 37.367188 189.875 37.363281 189.875 37.363281 189.875 Z M 37.359375 189.875 Z M 37.355469 189.871094 C 37.355469 189.871094 37.355469 189.875 37.359375 189.875 C 37.355469 189.875 37.355469 189.871094 37.355469 189.871094 Z M 37.351562 189.871094 C 37.351562 189.871094 37.351562 189.871094 37.355469 189.871094 C 37.351562 189.871094 37.351562 189.871094 37.351562 189.871094 Z M 37.335938 189.863281 C 37.335938 189.863281 37.339844 189.867188 37.339844 189.867188 C 37.339844 189.867188 37.335938 189.863281 37.335938 189.863281 Z M 37.332031 189.863281 C 37.332031 189.863281 37.332031 189.863281 37.335938 189.863281 C 37.332031 189.863281 37.332031 189.863281 37.332031 189.863281 Z M 37.328125 189.859375 C 37.328125 189.859375 37.328125 189.859375 37.328125 189.863281 C 37.328125 189.859375 37.328125 189.859375 37.328125 189.859375 Z M 37.328125 189.859375 Z M 37.320312 189.859375 C 37.320312 189.859375 37.320312 189.859375 37.324219 189.859375 C 37.320312 189.859375 37.320312 189.859375 37.320312 189.859375 Z M 37.320312 189.855469 Z M 37.316406 189.855469 Z M 37.308594 189.851562 C 37.308594 189.851562 37.3125 189.855469 37.3125 189.855469 C 37.3125 189.855469 37.308594 189.851562 37.308594 189.851562 Z M 37.304688 189.851562 Z M 37.304688 189.851562 Z M 37.300781 189.847656 Z M 37.296875 189.847656 Z M 37.292969 189.847656 Z M 37.28125 189.839844 Z M 37.277344 189.839844 Z M 37.261719 189.832031 Z M 37.863281 170.097656 L 35.894531 176.4375 C 35.179688 178.734375 35.777344 181.121094 37.257812 182.800781 C 38.039062 183.6875 39.0625 184.375 40.269531 184.75 L 42.613281 185.476562 L 43.074219 186.949219 L 39.648438 175.96875 Z M 177.167969 147.027344 L 178.246094 150.472656 L 175.203125 160.265625 L 209.382812 50.207031 C 210.472656 46.707031 208.511719 42.984375 205.007812 41.898438 L 177.167969 33.269531 Z M 104.335938 10.691406 L 95.207031 7.859375 C 91.703125 6.773438 87.976562 8.734375 86.890625 12.234375 L 86.796875 12.53125 L 98.425781 12.53125 Z M 104.335938 10.691406 " fill-opacity="1" fill-rule="evenodd"/><g clip-path="url(#0e99c15a94)"><g clip-path="url(#f289eb6822)"><g clip-path="url(#8fcb887dc9)"><path fill="#000000" d="M 33.886719 76.449219 L 116.117188 48.667969 L 151.714844 154.035156 L 69.484375 181.816406 Z M 33.886719 76.449219 " fill-opacity="1" fill-rule="nonzero"/></g></g></g></svg>